<?xml version="1.0" encoding="UTF-8" standalone="no"?>
<svg
   xmlns:dc="http://purl.org/dc/elements/1.1/"
   xmlns:cc="http://creativecommons.org/ns#"
   xmlns:rdf="http://www.w3.org/1999/02/22-rdf-syntax-ns#"
   xmlns:svg="http://www.w3.org/2000/svg"
   xmlns="http://www.w3.org/2000/svg"
   xmlns:xlink="http://www.w3.org/1999/xlink"
   xmlns:sodipodi="http://sodipodi.sourceforge.net/DTD/sodipodi-0.dtd"
   xmlns:inkscape="http://www.inkscape.org/namespaces/inkscape"
   width="270.34711"
   height="182.7338"
   viewBox="-40 -120 270.34711 182.7338"
   id="svg3336"
   version="1.1"
   inkscape:version="0.48.3.1 r9886"
   sodipodi:docname="2.svg">
  <sodipodi:namedview
     pagecolor="#ffffff"
     bordercolor="#666666"
     borderopacity="1"
     objecttolerance="10"
     gridtolerance="10"
     guidetolerance="10"
     inkscape:pageopacity="0"
     inkscape:pageshadow="2"
     inkscape:window-width="1280"
     inkscape:window-height="753"
     id="namedview6669"
     showgrid="false"
     inkscape:zoom="0.22101758"
     inkscape:cx="210.01641"
     inkscape:cy="16.118023"
     inkscape:window-x="0"
     inkscape:window-y="0"
     inkscape:window-maximized="1"
     inkscape:current-layer="svg3336"
     fit-margin-top="10"
     fit-margin-left="10"
     fit-margin-right="10"
     fit-margin-bottom="10" />
  <title
     id="title3338">Route map of London Underground, London Overground, Docklands Light Railway and Crossrail licensed under Creative Commons Attribution-Share Alike 4.0 International by Wikimedians</title>
  <metadata
     id="license">
    <rdf:RDF>
      <cc:Work
         rdf:about="">
        <dc:format>image/svg+xml</dc:format>
        <dc:type
           rdf:resource="http://purl.org/dc/dcmitype/StillImage" />
        <cc:license
           rdf:resource="http://creativecommons.org/licenses/by-sa/4.0/" />
        <dc:title>Route map of London Underground, London Overground, Docklands Light Railway and Crossrail licensed under Creative Commons Attribution-Share Alike 4.0 International by Wikimedians</dc:title>
      </cc:Work>
      <cc:License
         rdf:about="http://creativecommons.org/licenses/by-sa/4.0/">
        <cc:permits
           rdf:resource="http://creativecommons.org/ns#Reproduction" />
        <cc:permits
           rdf:resource="http://creativecommons.org/ns#Distribution" />
        <cc:requires
           rdf:resource="http://creativecommons.org/ns#Notice" />
        <cc:requires
           rdf:resource="http://creativecommons.org/ns#Attribution" />
        <cc:permits
           rdf:resource="http://creativecommons.org/ns#DerivativeWorks" />
        <cc:requires
           rdf:resource="http://creativecommons.org/ns#ShareAlike" />
      </cc:License>
    </rdf:RDF>
  </metadata>
  <style
     type="text/css"
     id="style3341">
text {font-family:Arimo,Liberation Sans,Helvetica,Arial,sans-serif}
.textbg {stroke:#fff;stroke-width:3;stroke-linejoin:round}
.zone {font-size:35px;font-weight:bold;text-anchor:middle}
.st {font-size:14px;fill:#000}
.small {font-size:11px;fill:#000}
.intline {font-size:11px;fill:#fff}
.x {fill:#999}
.b {font-weight:bold}
.mid {text-anchor:middle}
.end {text-anchor:end}
.ul {text-decoration:underline;cursor:help}
.me {fill:none;stroke-width:5}
.mes {fill:none;stroke-width:1.5;stroke:#fff;stroke-linecap:round}
.meb {fill:none;stroke-width:5.5}
.mex {fill:none;stroke-width:3.5;stroke:#fff}
.ftfl {fill:#009}
.fbakerloo {fill:#894E24}
.sbakerloo {stroke:#894E24}
.fcentral {fill:#DC241F}
.scentral {stroke:#DC241F}
.fcircle {fill:#d90}
.scircle {stroke:#FFCE00}
.bcircle {stroke:#d90}
.fdistrict {fill:#007229}
.sdistrict {stroke:#007229}
.fhnc {fill:#c78}
.shnc {stroke:#D799AF}
.bhnc {stroke:#c78}
.fjubilee {fill:#777}
.sjubilee {stroke:#868F98}
.fmetropolitan {fill:#826}
.smetropolitan {stroke:#751056}
.fnorthern {fill:#000}
.snorthern {stroke:#000}
.fpiccadilly {fill:#0019A8}
.spiccadilly {stroke:#0019A8}
.fvictoria {fill:#09d}
.svictoria {stroke:#00A0E2}
.fwnc {fill:#5b9}
.swnc {stroke:#76D0BD}
.swnc2 {stroke:#0019A8;stroke-width:0.5;fill:none}
.fdlr {fill:#00a4a7}
.sdlr {stroke:#00a4a7}
.sdlr2 {stroke:#fff;stroke-width:1;fill:none}
.fog {fill:#E87511}
.fogx {fill:#fb5}
.sog {stroke:#E87511}
.sogx {stroke:#fb5}
.fcrossrail {fill:#7156A5}
.scrossrail {stroke:#7156A5}
.ftflrail {fill:#0019A8}
.stflrail {stroke:#0019A8}
.stl {stroke:#6C0;stroke-width:2;fill:none}
.ftl {fill:#5b0}
.rn {fill:#99f}
.osib {fill:none;stroke:#fff;stroke-width:5}
.osi {fill:none;stroke:#009;stroke-width:3.5;cursor:help}
.branch {stroke:#fff;stroke-width:3;stroke-dasharray:4;fill:none}
.tleg:hover {fill:#009;stroke-width:1;stroke:#009;cursor:pointer}
.tleg:active {cursor:progress}
.toff:hover {cursor:pointer}
.toff:active {cursor:progress}
.blink {fill:none;stroke-width:12;stroke-linecap:round;opacity:0;visibility:hidden;cursor:pointer}
.pointer {cursor:pointer}
.progress:active {cursor:progress}
	</style>
  <defs
     id="defs3343">
    <path
       id="term"
       style="fill:none;stroke-width:5"
       d="M -8,0 H 8"
       inkscape:connector-curvature="0" />
    <use
       xlink:href="#term"
       id="termbakerloo"
       class="sbakerloo"
       style="stroke:#894e24"
       x="0"
       y="0"
       width="2500"
       height="1320" />
    <use
       xlink:href="#term"
       id="termcentral"
       class="scentral"
       style="stroke:#dc241f"
       x="0"
       y="0"
       width="2500"
       height="1320" />
    <use
       xlink:href="#term"
       id="termcircle"
       class="scircle"
       style="stroke:#ffce00"
       x="0"
       y="0"
       width="2500"
       height="1320" />
    <use
       xlink:href="#term"
       id="termdistrict"
       class="sdistrict"
       style="stroke:#007229"
       x="0"
       y="0"
       width="2500"
       height="1320" />
    <use
       xlink:href="#term"
       id="termhnc"
       class="shnc"
       style="stroke:#d799af"
       x="0"
       y="0"
       width="2500"
       height="1320" />
    <use
       xlink:href="#term"
       id="termjubilee"
       class="sjubilee"
       style="stroke:#868f98"
       x="0"
       y="0"
       width="2500"
       height="1320" />
    <use
       xlink:href="#term"
       id="termmetropolitan"
       class="smetropolitan"
       style="stroke:#751056"
       x="0"
       y="0"
       width="2500"
       height="1320" />
    <use
       xlink:href="#term"
       id="termnorthern"
       class="snorthern"
       style="fill:#9999ff;stroke:#000000"
       x="0"
       y="0"
       width="2500"
       height="1320" />
    <use
       xlink:href="#term"
       id="termpiccadilly"
       class="spiccadilly"
       style="stroke:#0019a8"
       x="0"
       y="0"
       width="2500"
       height="1320" />
    <use
       xlink:href="#term"
       id="termvictoria"
       class="svictoria"
       style="stroke:#00a0e2"
       x="0"
       y="0"
       width="2500"
       height="1320" />
    <use
       xlink:href="#term"
       id="termdlr"
       class="sdlr"
       style="stroke:#00a4a7"
       x="0"
       y="0"
       width="2500"
       height="1320" />
    <use
       xlink:href="#term"
       id="termog"
       class="sog"
       style="stroke:#e87511"
       x="0"
       y="0"
       width="2500"
       height="1320" />
    <use
       xlink:href="#term"
       id="termcrossrail"
       class="stflrail"
       style="stroke:#0019a8"
       x="0"
       y="0"
       width="2500"
       height="1320" />
    <path
       id="termx"
       style="fill:#ffffff;stroke-width:0.75"
       d="M 1.75,-2 H 7.5 v 4 h -15 v -4 h 5.75"
       inkscape:connector-curvature="0" />
    <use
       xlink:href="#termx"
       id="termnorthernx"
       class="snorthern"
       style="fill:#9999ff;stroke:#000000"
       x="0"
       y="0"
       width="2500"
       height="1320" />
    <use
       xlink:href="#termx"
       id="termogx"
       class="sog"
       style="stroke:#e87511"
       x="0"
       y="0"
       width="2500"
       height="1320" />
    <path
       id="st"
       style="fill:none;stroke-width:5"
       d="M 1,0 H 7.5"
       inkscape:connector-curvature="0" />
    <path
       id="stb"
       style="fill:none;stroke-width:5"
       d="M 2.5,0 H 7.75"
       inkscape:connector-curvature="0" />
    <use
       xlink:href="#st"
       id="stbakerloo"
       class="sbakerloo"
       style="stroke:#894e24"
       x="0"
       y="0"
       width="2500"
       height="1320" />
    <use
       xlink:href="#st"
       id="stcentral"
       class="scentral"
       style="stroke:#dc241f"
       x="0"
       y="0"
       width="2500"
       height="1320" />
    <g
       id="stcircle">
      <use
         xlink:href="#stb"
         class="meb bcircle"
         id="use3367"
         style="font-weight:bold;fill:none;stroke:#dd9900;stroke-width:5.5"
         x="0"
         y="0"
         width="2500"
         height="1320" />
      <use
         xlink:href="#st"
         class="scircle"
         id="use3369"
         style="stroke:#ffce00"
         x="0"
         y="0"
         width="2500"
         height="1320" />
    </g>
    <use
       xlink:href="#st"
       id="stdistrict"
       class="sdistrict"
       style="stroke:#007229"
       x="0"
       y="0"
       width="2500"
       height="1320" />
    <g
       id="sthnc">
      <use
         xlink:href="#stb"
         class="meb bhnc"
         id="use3373"
         style="font-weight:bold;fill:none;stroke:#cc7788;stroke-width:5.5"
         x="0"
         y="0"
         width="2500"
         height="1320" />
      <use
         xlink:href="#st"
         class="shnc"
         id="use3375"
         style="stroke:#d799af"
         x="0"
         y="0"
         width="2500"
         height="1320" />
    </g>
    <use
       xlink:href="#st"
       id="stjubilee"
       class="sjubilee"
       style="stroke:#868f98"
       x="0"
       y="0"
       width="2500"
       height="1320" />
    <use
       xlink:href="#st"
       id="stmetropolitan"
       class="smetropolitan"
       style="stroke:#751056"
       x="0"
       y="0"
       width="2500"
       height="1320" />
    <use
       xlink:href="#st"
       id="stnorthern"
       class="snorthern"
       style="fill:#9999ff;stroke:#000000"
       x="0"
       y="0"
       width="2500"
       height="1320" />
    <use
       xlink:href="#st"
       id="stpiccadilly"
       class="spiccadilly"
       style="stroke:#0019a8"
       x="0"
       y="0"
       width="2500"
       height="1320" />
    <use
       xlink:href="#st"
       id="stvictoria"
       class="svictoria"
       style="stroke:#00a0e2"
       x="0"
       y="0"
       width="2500"
       height="1320" />
    <use
       xlink:href="#st"
       id="stdlr"
       class="sdlr"
       style="stroke:#00a4a7"
       x="0"
       y="0"
       width="2500"
       height="1320" />
    <use
       xlink:href="#st"
       id="stog"
       class="sog"
       style="stroke:#e87511"
       x="0"
       y="0"
       width="2500"
       height="1320" />
    <use
       xlink:href="#st"
       id="stcrossrail"
       class="stflrail"
       style="stroke:#0019a8"
       x="0"
       y="0"
       width="2500"
       height="1320" />
    <path
       id="stx"
       style="fill:none;stroke-width:5"
       d="M 8,0 2,0"
       inkscape:connector-curvature="0" />
    <path
       id="stxm"
       style="fill:none;stroke:#ffffff;stroke-width:3.5"
       d="M 7.25,0 0,0"
       inkscape:connector-curvature="0" />
    <path
       id="stxm2"
       style="fill:none;stroke:#ffffff;stroke-width:1.5"
       d="M 6.25,0 0,0"
       inkscape:connector-curvature="0" />
    <g
       id="stmetropolitanx">
      <use
         xlink:href="#stx"
         class="smetropolitan"
         id="use3389"
         style="stroke:#751056"
         x="0"
         y="0"
         width="2500"
         height="1320" />
      <use
         xlink:href="#stxm"
         id="use3391"
         x="0"
         y="0"
         width="2500"
         height="1320" />
    </g>
    <g
       id="stnorthernx">
      <use
         xlink:href="#stx"
         class="snorthern"
         id="use3394"
         style="fill:#9999ff;stroke:#000000"
         x="0"
         y="0"
         width="2500"
         height="1320" />
      <use
         xlink:href="#stxm"
         id="use3396"
         x="0"
         y="0"
         width="2500"
         height="1320" />
    </g>
    <g
       id="stogx">
      <use
         xlink:href="#stx"
         class="sog"
         id="use3399"
         style="stroke:#e87511"
         x="0"
         y="0"
         width="2500"
         height="1320" />
      <use
         xlink:href="#stxm"
         id="use3401"
         x="0"
         y="0"
         width="2500"
         height="1320" />
    </g>
    <g
       id="stogx2">
      <use
         xlink:href="#stx"
         class="sog"
         id="use3404"
         style="stroke:#e87511"
         x="0"
         y="0"
         width="2500"
         height="1320" />
      <use
         xlink:href="#stxm2"
         id="use3406"
         x="0"
         y="0"
         width="2500"
         height="1320" />
    </g>
    <g
       id="stcrossrailx">
      <use
         xlink:href="#stx"
         class="scrossrail"
         id="use3409"
         style="stroke:#7156a5"
         x="0"
         y="0"
         width="2500"
         height="1320" />
      <use
         xlink:href="#stxm"
         id="use3411"
         x="0"
         y="0"
         width="2500"
         height="1320" />
    </g>
    <circle
       id="sttl"
       cx="0"
       cy="0"
       r="4"
       class="ftl"
       sodipodi:cx="0"
       sodipodi:cy="0"
       sodipodi:rx="4"
       sodipodi:ry="4"
       style="fill:#55bb00" />
    <g
       id="sttlnr">
      <circle
         cx="0"
         cy="0"
         r="5.5"
         style="fill:#ffffff;stroke:#000000;stroke-width:0.75"
         id="circle3415"
         d="M 5.5,0 C 5.5,3.0375661 3.0375661,5.5 0,5.5 -3.0375661,5.5 -5.5,3.0375661 -5.5,0 c 0,-3.0375661 2.4624339,-5.5 5.5,-5.5 3.0375661,0 5.5,2.4624339 5.5,5.5 z"
         sodipodi:cx="0"
         sodipodi:cy="0"
         sodipodi:rx="5.5"
         sodipodi:ry="5.5" />
      <path
         style="fill:none;stroke:#ef2721;stroke-width:1"
         d="M -5,-1.25 H 5 M -5,1.25 H 5 m -7.5,-5 5,2.5 -5,2.5 5,2.5"
         id="path3417"
         inkscape:connector-curvature="0" />
    </g>
    <g
       id="sttlow">
      <use
         xlink:href="#sttl"
         id="use3420"
         x="0"
         y="0"
         width="2500"
         height="1320" />
      <path
         style="fill:none;stroke:#ffffff;stroke-width:1"
         d="M -3,-3 1.5,0 -3,3"
         id="path3422"
         inkscape:connector-curvature="0" />
    </g>
    <path
       id="nr"
       style="fill:#ef2721"
       transform="matrix(0.25,0,0,0.25,-6.25,-4)"
       d="m 11,0 11,0 15,8 13,0 0,5 -13,0 -13,7 26,0 0,5 -26,0 16,8 L 28,33 13,25 0,25 0,20 13,20 26,13 0,13 0,8 26,8 z"
       inkscape:connector-curvature="0" />
    <g
       id="intnr"
       cursor="help">
      <circle
         cx="0"
         cy="0"
         r="8.25"
         id="circle3426"
         d="M 8.25,0 C 8.25,4.5563492 4.5563492,8.25 0,8.25 -4.5563492,8.25 -8.25,4.5563492 -8.25,0 c 0,-4.5563492 3.6936508,-8.25 8.25,-8.25 4.5563492,0 8.25,3.6936508 8.25,8.25 z"
         sodipodi:cx="0"
         sodipodi:cy="0"
         sodipodi:rx="8.25"
         sodipodi:ry="8.25"
         style="fill:#ffffff" />
      <circle
         cx="0"
         cy="0"
         r="7"
         style="fill:#ffffff;stroke:#000000;stroke-width:1"
         id="circle3428"
         d="M 7,0 C 7,3.8659932 3.8659932,7 0,7 -3.8659932,7 -7,3.8659932 -7,0 c 0,-3.8659932 3.1340068,-7 7,-7 3.8659932,0 7,3.1340068 7,7 z"
         sodipodi:cx="0"
         sodipodi:cy="0"
         sodipodi:rx="7"
         sodipodi:ry="7" />
      <use
         xlink:href="#nr"
         id="use3430"
         x="0"
         y="0"
         width="2500"
         height="1320" />
    </g>
    <g
       id="intnrx"
       cursor="help">
      <circle
         cx="0"
         cy="0"
         r="8.25"
         id="circle3433"
         sodipodi:cx="0"
         sodipodi:cy="0"
         sodipodi:rx="8.25"
         sodipodi:ry="8.25"
         style="fill:#ffffff" />
      <circle
         cx="0"
         cy="0"
         r="7"
         style="fill:#ffffff;stroke:#999999;stroke-width:1"
         id="circle3435"
         sodipodi:cx="0"
         sodipodi:cy="0"
         sodipodi:rx="7"
         sodipodi:ry="7" />
      <use
         xlink:href="#nr"
         id="use3437"
         x="0"
         y="0"
         width="2500"
         height="1320" />
    </g>
    <g
       id="int">
      <circle
         cx="0"
         cy="0"
         r="8.25"
         id="circle3440"
         d="M 8.25,0 C 8.25,4.5563492 4.5563492,8.25 0,8.25 -4.5563492,8.25 -8.25,4.5563492 -8.25,0 c 0,-4.5563492 3.6936508,-8.25 8.25,-8.25 4.5563492,0 8.25,3.6936508 8.25,8.25 z"
         sodipodi:cx="0"
         sodipodi:cy="0"
         sodipodi:rx="8.25"
         sodipodi:ry="8.25"
         style="fill:#ffffff" />
      <circle
         cx="0"
         cy="0"
         r="6"
         style="fill:#ffffff;stroke:#000000;stroke-width:3"
         id="circle3442"
         d="M 6,0 C 6,3.3137085 3.3137085,6 0,6 -3.3137085,6 -6,3.3137085 -6,0 c 0,-3.3137085 2.6862915,-6 6,-6 3.3137085,0 6,2.6862915 6,6 z"
         sodipodi:cx="0"
         sodipodi:cy="0"
         sodipodi:rx="6"
         sodipodi:ry="6" />
    </g>
    <g
       id="intx">
      <circle
         cx="0"
         cy="0"
         r="8.25"
         id="circle3445"
         sodipodi:cx="0"
         sodipodi:cy="0"
         sodipodi:rx="8.25"
         sodipodi:ry="8.25"
         style="fill:#ffffff" />
      <circle
         cx="0"
         cy="0"
         r="6"
         style="fill:#ffffff;stroke:#999999;stroke-width:3"
         id="circle3447"
         sodipodi:cx="0"
         sodipodi:cy="0"
         sodipodi:rx="6"
         sodipodi:ry="6" />
    </g>
    <g
       id="cap2">
      <rect
         x="-8.25"
         y="-8.25"
         width="31"
         height="16.5"
         rx="8.25"
         id="rect3450"
         style="fill:#ffffff" />
      <rect
         x="-6"
         y="-6"
         width="26.5"
         height="12"
         rx="6"
         style="fill:#ffffff;stroke:#000000;stroke-width:3"
         id="rect3452" />
    </g>
    <g
       id="cap2l">
      <rect
         x="-8.25"
         y="-8.25"
         width="34.5"
         height="16.5"
         rx="8.25"
         id="rect3455"
         style="fill:#ffffff" />
      <rect
         x="-6"
         y="-6"
         width="30"
         height="12"
         rx="6"
         style="fill:#ffffff;stroke:#000000;stroke-width:3"
         id="rect3457" />
    </g>
    <g
       id="cap2nr"
       cursor="help">
      <rect
         x="-8.25"
         y="-8.25"
         width="31"
         height="16.5"
         rx="8.25"
         id="rect3460"
         style="fill:#ffffff" />
      <rect
         x="-7"
         y="-7"
         width="28.5"
         height="14"
         rx="7"
         style="fill:#ffffff;stroke:#000000;stroke-width:1"
         id="rect3462" />
    </g>
    <g
       id="cap3nr"
       cursor="help">
      <rect
         x="-8.25"
         y="-8.25"
         width="38"
         height="16.5"
         rx="8.25"
         id="rect3465"
         style="fill:#ffffff" />
      <rect
         x="-7"
         y="-7"
         width="35.5"
         height="14"
         rx="7"
         style="fill:#ffffff;stroke:#000000;stroke-width:1"
         id="rect3467" />
    </g>
    <path
       id="STRg"
       style="fill:#ffffff;stroke:none"
       d="M 0,0 3,3 V 0.5 l -3,-3 -3,3 V 3 z"
       inkscape:connector-curvature="0" />
    <g
       id="airport"
       transform="matrix(0,-0.04,0.04,0,-10,10)"
       style="fill:#000000;stroke:none">
      <polygon
         points="320,225 170,10 140,10 200,225 80,225 30,150 10,150 30,240 30,260 10,350 30,350 80,275 200,275 140,490 170,490 320,275 450,275 490,250 450,225 "
         id="polygon3471" />
      <ellipse
         cx="441"
         cy="250"
         rx="50"
         ry="24"
         id="ellipse3473"
         d="m 491,250 c 0,13.25483 -22.38576,24 -50,24 -27.61424,0 -50,-10.74517 -50,-24 0,-13.25483 22.38576,-24 50,-24 27.61424,0 50,10.74517 50,24 z"
         sodipodi:cx="441"
         sodipodi:cy="250"
         sodipodi:rx="50"
         sodipodi:ry="24"
         style="stroke:#000000" />
    </g>
    <rect
       id="route_base"
       x="-8"
       y="-8"
       width="16"
       height="16"
       rx="5"
       class="fog"
       style="fill:#e87511" />
    <g
       id="AETRAM"
       cursor="help"
       transform="matrix(0.025,0,0,0.025,-6.25,0)">
      <path
         style="fill:none;stroke:#000000;stroke-width:25"
         d="m -80,-20 250,70 160,0 250,-70 m -410,70 30,-30 100,0 30,30 -30,-30 -50,0 0,130"
         id="path3477"
         inkscape:connector-curvature="0" />
      <path
         d="m 150,140 200,0 60,50 -320,0 m 340,0 a 97.5,195 0 0 1 0,390 H 70 a 97.5,195 0 0 1 0,-390"
         id="path3479"
         inkscape:connector-curvature="0"
         style="fill:#000000" />
      <path
         d="m 430,220 a 70,190 0 0 1 70,160 H 0 A 70,190 0 0 1 70,220"
         id="path3481"
         inkscape:connector-curvature="0"
         style="fill:#ffffff" />
    </g>
    <clipPath
       clipPathUnits="userSpaceOnUse"
       id="clipPath6211">
      <rect
         style="fill:#0019a8;fill-opacity:1;stroke:none"
         id="rect6213"
         width="250.34709"
         height="179.96196"
         x="-160.4583"
         y="-115.68296"
         transform="matrix(-0.60000143,-0.79999893,0.79999893,-0.60000143,0,0)" />
    </clipPath>
    <clipPath
       clipPathUnits="userSpaceOnUse"
       id="clipPath6215">
      <rect
         style="fill:#0019a8;fill-opacity:1;stroke:none"
         id="rect6217"
         width="250.34709"
         height="179.96196"
         x="-41.643799"
         y="-26.128155"
         transform="matrix(-0.60000143,-0.79999893,0.79999893,-0.60000143,0,0)" />
    </clipPath>
    <clipPath
       clipPathUnits="userSpaceOnUse"
       id="clipPath6219">
      <rect
         style="fill:#0019a8;fill-opacity:1;stroke:none"
         id="rect6221"
         width="250.34709"
         height="179.96196"
         x="-71.643799"
         y="-47.628155"
         transform="matrix(-0.60000143,-0.79999893,0.79999893,-0.60000143,0,0)" />
    </clipPath>
    <clipPath
       clipPathUnits="userSpaceOnUse"
       id="clipPath6223">
      <rect
         style="fill:#0019a8;fill-opacity:1;stroke:none"
         id="rect6225"
         width="250.34709"
         height="179.96196"
         x="-101.6438"
         y="-70.128151"
         transform="matrix(-0.60000143,-0.79999893,0.79999893,-0.60000143,0,0)" />
    </clipPath>
    <clipPath
       clipPathUnits="userSpaceOnUse"
       id="clipPath6227">
      <rect
         style="fill:#0019a8;fill-opacity:1;stroke:none"
         id="rect6229"
         width="250.34709"
         height="179.96196"
         x="-131.6438"
         y="-92.628151"
         transform="matrix(-0.60000143,-0.79999893,0.79999893,-0.60000143,0,0)" />
    </clipPath>
    <clipPath
       clipPathUnits="userSpaceOnUse"
       id="clipPath6231">
      <rect
         style="fill:#0019a8;fill-opacity:1;stroke:none"
         id="rect6233"
         width="250.34709"
         height="179.96196"
         x="-191.6438"
         y="-137.62816"
         transform="matrix(-0.60000143,-0.79999893,0.79999893,-0.60000143,0,0)" />
    </clipPath>
    <clipPath
       clipPathUnits="userSpaceOnUse"
       id="clipPath6235">
      <rect
         style="fill:#0019a8;fill-opacity:1;stroke:none"
         id="rect6237"
         width="250.34709"
         height="179.96196"
         x="-221.6438"
         y="-160.12816"
         transform="matrix(-0.60000143,-0.79999893,0.79999893,-0.60000143,0,0)" />
    </clipPath>
    <clipPath
       clipPathUnits="userSpaceOnUse"
       id="clipPath6239">
      <rect
         style="fill:#0019a8;fill-opacity:1;stroke:none"
         id="rect6241"
         width="250.34709"
         height="179.96196"
         x="1113.3562"
         y="-86.128159" />
    </clipPath>
  </defs>
  <g
     style="fill:none;stroke:#0019a8;stroke-width:5"
     id="g3538"
     class="me spiccadilly"
     clip-path="url(#clipPath6239)"
     transform="translate(-1143.3562,-41.100009)">
    <path
       inkscape:connector-curvature="0"
       d="m 20,299 288,0 a 40,40 0 0 1 24,8 l 36,27 a 40,40 0 0 1 16,32 l 0,327.4 a 40,40 0 0 0 16,32 l 160,120 a 45,45 0 0 0 27,9 l 40,0 393.3,0 a 130.5,130.5 0 0 0 78.3,-26.1 q 16,-12 16,-32 l 0,-75.5 q 0,-20 16,-32 L 1282,575.25 q 8,-6 8,-16 L 1290,292 q 0,-20 16,-32 l 61,-45.75 q 16,-12 16,-32 l 0,-52.25 q 0,-20 -16,-32 L 1155,-60 m -518,914.4 -50,0 a 45,45 0 0 1 -27,-9 L 474,781 a 70,70 0 0 0 -84,0 L 164,950.5 q -12,9 -27,9 l -107,0 m 134,-9 -60,45 a 20,20 0 1 1 -12,-36"
       id="Piccadilly_line_route" />
    <title
       id="title3541">Piccadilly line</title>
  </g>
  <use
     xlink:href="#stpiccadilly"
     transform="matrix(-0.60000143,0.79999893,-0.79999893,-0.60000143,191.6438,32.899991)"
     id="Turnpike_Lane"
     x="0"
     y="0"
     width="2500"
     height="1320"
     clip-path="url(#clipPath6235)" />
  <use
     xlink:href="#stpiccadilly"
     transform="matrix(-0.60000143,0.79999893,-0.79999893,-0.60000143,161.6438,10.399991)"
     id="Wood_Green"
     x="0"
     y="0"
     width="2500"
     height="1320"
     clip-path="url(#clipPath6231)" />
  <use
     xlink:href="#stpiccadilly"
     transform="matrix(-0.60000143,0.79999893,-0.79999893,-0.60000143,101.6438,-34.600009)"
     id="Arnos_Grove"
     x="0"
     y="0"
     width="2500"
     height="1320"
     clip-path="url(#clipPath6227)" />
  <use
     xlink:href="#stpiccadilly"
     transform="matrix(-0.60000143,0.79999893,-0.79999893,-0.60000143,71.643799,-57.100009)"
     id="Southgate"
     x="0"
     y="0"
     width="2500"
     height="1320"
     clip-path="url(#clipPath6223)" />
  <use
     xlink:href="#stpiccadilly"
     transform="matrix(-0.60000143,0.79999893,-0.79999893,-0.60000143,41.643799,-79.600009)"
     id="Oakwood"
     x="0"
     y="0"
     width="2500"
     height="1320"
     clip-path="url(#clipPath6219)" />
  <use
     xlink:href="#termpiccadilly"
     transform="matrix(-0.60000143,0.79999893,-0.79999893,-0.60000143,11.643799,-101.10001)"
     id="Cockfosters"
     x="0"
     y="0"
     width="2500"
     height="1320"
     clip-path="url(#clipPath6215)" />
  <use
     xlink:href="#stpiccadilly"
     transform="matrix(-0.60000143,0.79999893,-0.79999893,-0.60000143,130.4583,-11.545205)"
     id="Wood_Green-2"
     x="0"
     y="0"
     width="2500"
     height="1320"
     clip-path="url(#clipPath6211)" />
</svg>
